{"title":"Parts Per Billion 2014 480p BRRip XviD AC3-N3kr4","uid":10250429,"size":1705981749,"categoryP":"video","categoryS":"hd___movies","magnet":"?xt=urn:btih:e57dcc386c6410bdee0b501f67269a376354b640&amp;dn=Parts+Per+Billion+2014+480p+BRRip+XviD+AC3-N3kr4&amp;tr=udp%3A%2F%2Ftracker.openbittorrent.com%3A80&amp;tr=udp%3A%2F%2Fopen.demonii.com%3A1337&amp;tr=udp%3A%2F%2Ftracker.coppersurfer.tk%3A6969&amp;tr=udp%3A%2F%2Fexodus.desync.com%3A6969","seeders":0,"leechers":0,"uploader":"Falcon.G13","files":2,"time":1401342385,"description":"Parts Per Billion (2014)\n - Sci-Fi - 20 May 2014 (USA)\n4.4 Your rating: -/10 Ratings: 4.4/10 from 227 users \nReviews: 4 user\n\nThe story of three couples dealing with a reality\n-shaking event that threatens to tear them apart.\n &lt;a href=&quot;\nhttp://i.imgur.com/8APV1F8.jpg&quot; rel=&quot;nofollow&quot; target=&quot;_NEW&quot;&gt;\nhttp://i.imgur.com/8APV1F8.jpg&lt;/a&gt; &lt;a href=&quot;\nhttp://i.imgur.com/2t3PAHI.jpg&quot; rel=&quot;nofollow&quot; target=&quot;_NEW&quot;&gt;\nhttp://i.imgur.com/2t3PAHI.jpg&lt;/a&gt; &lt;a href=&quot;\nhttp://i.imgur.com/5djDLlt.jpg&quot; rel=&quot;nofollow&quot; target=&quot;_NEW&quot;&gt;\nhttp://i.imgur.com/5djDLlt.jpg&lt;/a&gt; &lt;a href=&quot;\nhttp://i.imgur.com/xbGVrC2.jpg&quot; rel=&quot;nofollow&quot; target=&quot;_NEW&quot;&gt;\nhttp://i.imgur.com/xbGVrC2.jpg&lt;/a&gt; &lt;a href=&quot;\nhttp://i.imgur.com/xs0NsDs.jpg&quot; rel=&quot;nofollow&quot; target=&quot;_NEW&quot;&gt;\nhttp://i.imgur.com/xs0NsDs.jpg&lt;/a&gt; &lt;a href=&quot;\nhttp://i.imgur.com/0aSPgYG.jpg&quot; rel=&quot;nofollow&quot; target=&quot;_NEW&quot;&gt;\nhttp://i.imgur.com/0aSPgYG.jpg&lt;/a&gt;\n\nGeneral\nComplete name : Parts Per Billion 2014 480p BRRip XviD AC3-N3kr4.avi\nFormat : AVI\nFormat/Info : Audio Video Interleave\nFormat profile : OpenDML\nFile size : 1.59 GiB\nDuration : 1h 41mn\nOverall bit rate : 2 232 Kbps\nWriting application : Lavf55.7.100\n\nVideo\nID : 0\nFormat : MPEG-4 Visual\nFormat profile : Advanced Simple@L1\nFormat settings, BVOP : No\nFormat settings, QPel : No\nFormat settings, GMC : No warppoints\nFormat settings, Matrix : Default (H.263)\nCodec ID : XVID\nCodec ID/Hint : XviD\nDuration : 1h 38mn\nBit rate : 1 634 Kbps\nWidth : 720 pixels\nHeight : 400 pixels\nDisplay aspect ratio : 16:9\nFrame rate : 23.976 fps\nColor space : YUV\nChroma subsampling : 4:2:0\nBit depth : 8 bits\nScan type : Progressive\nCompression mode : Lossy\nBits/(Pixel*Frame) : 0.237\nStream size : 1.13 GiB (71%)\nWriting library : Lavc55.12.100\n\nAudio\nID : 1\nFormat : AC-3\nFormat/Info : Audio Coding 3\nMode extension : CM (complete main)\nFormat settings, Endianness : Big\nCodec ID : 2000\nDuration : 1h 41mn\nBit rate mode : Constant\nBit rate : 640 Kbps\nChannel(s) : 6 channels\nChannel positions : Front: L C R, Side: L R, LFE\nSampling rate : 48.0 KHz\nBit depth : 16 bits\nCompression mode : Lossy\nStream size : 467 MiB (29%)\nAlignment : Aligned on interleaves\nInterleave, duration : 31 ms (0.74 video frame)\nInterleave, preload duration : 32 ms","torrent":{"xt":"urn:btih:e57dcc386c6410bdee0b501f67269a376354b640","amp;dn":"Parts+Per+Billion+2014+480p+BRRip+XviD+AC3-N3kr4","amp;tr":["udp%3A%2F%2Ftracker.openbittorrent.com%3A80","udp%3A%2F%2Fopen.demonii.com%3A1337","udp%3A%2F%2Ftracker.coppersurfer.tk%3A6969","udp%3A%2F%2Fexodus.desync.com%3A6969"],"infoHash":"e57dcc386c6410bdee0b501f67269a376354b640","infoHashBuffer":{"type":"Buffer","data":[229,125,204,56,108,100,16,189,238,11,80,31,103,38,154,55,99,84,182,64]},"announce":[],"urlList":[]}}